# xmcd
#
# Track frame offsets:
# 150
# 16342
# 31815
# 71317
# 90712
# 125927
# 152972
#
# Disc length: 2384 seconds
#
#
# Revision: 1
# Processed by: cddbd v1.5.1PL2 Copyright (c) Steve Scherf et al.
# Submitted via: FreeRIP 2.945 
#
DISCID=55094e07
DTITLE=Undercover - Best Friend
DYEAR=1900
DGENRE=
TTITLE0=Undercover - Best Friend(7 Inch Edit)
TTITLE1=Undercover - Best Friend(Dan's Monster Club Edit)
TTITLE2=Undercover - Best Friend(Dan's Monster Club Mix)
TTITLE3=Undercover - Best Friend(4 AM Mix)
TTITLE4=Undercover - Best Friend(The Steve Mac Mix)
TTITLE5=Undercover - Best Friend(Orrsome Dub Mix)
TTITLE6=Undercover - Best Friend(Gems For Jem Dub Mix)
EXTD=
EXTT0=
EXTT1=
EXTT2=
EXTT3=
EXTT4=
EXTT5=
EXTT6=
PLAYORDER=
